<svg id="Capa_1" enable-background="new 0 0 512 512" height="512" viewBox="0 0 512 512" width="512" xmlns="http://www.w3.org/2000/svg"><g><path d="m77.183 218.051-10.057 19.382c-4.005 7.719-15.047 7.719-19.052 0l-10.057-19.382c-1.019-1.963-2.62-3.564-4.583-4.583l-19.382-10.057c-7.719-4.005-7.719-15.047 0-19.052l19.382-10.057c1.964-1.019 3.564-2.62 4.583-4.583l10.057-19.382c4.005-7.719 15.047-7.719 19.052 0l10.057 19.382c1.019 1.964 2.62 3.564 4.583 4.583l19.382 10.057c7.719 4.005 7.719 15.047 0 19.052l-19.382 10.057c-1.963 1.019-3.564 2.62-4.583 4.583z" fill="#b9e6ff"/><path d="m441.503 477.157-9.009 17.362c-3.588 6.915-13.479 6.915-17.067 0l-9.009-17.362c-.913-1.759-2.347-3.193-4.106-4.106l-17.362-9.009c-6.915-3.588-6.915-13.479 0-17.067l17.362-9.009c1.759-.913 3.193-2.347 4.106-4.106l9.009-17.362c3.588-6.915 13.479-6.915 17.067 0l9.009 17.362c.913 1.759 2.347 3.193 4.105 4.106l17.362 9.009c6.915 3.588 6.915 13.479 0 17.067l-17.362 9.009c-1.759.913-3.193 2.347-4.105 4.106z" fill="#8de1ce"/><path d="m267.331 415.698c-12.518-8.412-15.846-25.378-7.434-37.895 29.104-43.308 73.461-70.962 124.9-77.869 41.573-5.582 85.621 3.012 114.964 22.429 12.576 8.323 16.025 25.265 7.702 37.842s-25.265 16.025-37.843 7.703c-21.051-13.931-54.12-16.993-77.555-13.845-25.279 3.394-60.865 15.553-86.838 54.203-8.386 12.475-25.341 15.871-37.896 7.432z" fill="#b9e6ff"/><path d="m262.476 362.547c-14.621-3.699-23.475-18.549-19.776-33.17 15.305-60.511 53.445-106.233 105.251-133.035 42.946-22.218 93.982-30.044 133.198-20.421 14.647 3.594 23.607 18.381 20.012 33.028-3.594 14.647-18.38 23.606-33.028 20.013-20.143-4.944-57.133-3.748-95.087 15.887-27.626 14.292-63.478 42.882-77.401 97.922-3.713 14.681-18.607 23.46-33.169 19.776z" fill="#e7889d"/><path d="m105.217 296.407c-11.101-10.208-11.825-27.483-1.617-38.584 38.427-41.791 42.714-87.447 39.544-118.389-4.356-42.509-23.614-74.113-38.782-88.261-11.028-10.287-11.629-27.566-1.342-38.595 10.286-11.028 27.564-11.629 38.595-1.343 29.526 27.541 50.93 74.531 55.859 122.632 2.853 27.85.322 55.117-7.523 81.046-8.887 29.364-24.413 56.238-46.149 79.877-10.191 11.081-27.464 11.842-38.585 1.617z" fill="#a68bd5"/><path d="m140.363 276.937c-5.769-13.934.849-29.907 14.783-35.676 52.455-21.719 75.572-61.322 85.728-90.721 13.953-40.389 9.798-77.165 1.999-96.386-5.669-13.974 1.062-29.9 15.037-35.57 13.98-5.669 29.9 1.063 35.57 15.038 15.18 37.415 14.802 89.048-.986 134.751-19.021 55.059-58.714 99.44-116.456 123.348-13.935 5.77-29.907-.853-35.675-14.784z" fill="#8de1ce"/><path d="m369.155 302.733c-44.76 9.978-83.149 36.219-109.258 75.07-8.412 12.517-5.084 29.483 7.434 37.895 12.556 8.438 29.511 5.043 37.896-7.433 25.536-37.997 60.354-50.384 85.543-54.017-5.893-17.678-13.131-34.907-21.615-51.515z" fill="#8bd5fd"/><path d="m311.76 219.962c-33.278 27-57.586 64.051-69.06 109.415-3.699 14.621 5.155 29.471 19.776 33.17 14.561 3.684 29.456-5.095 33.169-19.777 9.561-37.796 29.464-63.118 49.942-79.904-10.209-15.075-21.512-29.432-33.827-42.904z" fill="#e16e7e"/><path d="m176.039 291.72c49.357-20.436 85.513-55.839 106.856-100.076-14.064-12.38-29.035-23.687-44.744-33.817-11.354 28.376-34.772 63.462-83.005 83.434-13.934 5.769-20.552 21.742-14.783 35.676 5.768 13.931 21.74 20.554 35.676 14.783z" fill="#6fcd90"/><path d="m105.217 296.407c11.121 10.225 28.394 9.464 38.584-1.618 21.736-23.639 37.262-50.513 46.149-79.877 7.731-25.549 10.29-52.399 7.634-79.824-16.298-7.855-33.152-14.532-50.412-19.92-2.909-.908-5.868-1.601-8.855-2.099 2.194 8.216 3.87 17.026 4.827 26.364 3.17 30.942-1.117 76.598-39.544 118.389-10.208 11.102-9.484 28.377 1.617 38.585z" fill="#807bce"/><path d="m55.37 507.784c90.018-10.139 228.23-57.891 292.352-88.836 18.953-9.147 28.544-30.768 22.274-50.857-16.353-52.393-45.268-101.71-86.77-143.212-41.503-41.503-90.819-70.417-143.212-86.77-20.089-6.27-41.71 3.321-50.857 22.274-30.947 64.12-78.699 202.332-88.838 292.35-3.57 31.695 23.355 58.621 55.051 55.051z" fill="#f6ee86"/><path d="m51.35 253.839c-22.893 64.806-44.579 141.607-51.031 198.894-3.57 31.695 23.356 58.621 55.051 55.051 56.356-6.347 131.599-27.437 195.727-49.915-119.777-23.52-184.344-131.063-199.747-204.03z" fill="#f1d88c"/><path d="m171.293 461.703c0-25.243 20.464-45.707 45.707-45.707 22.608 0 41.37 16.418 45.043 37.979 18.341-6.604 35.589-13.262 50.987-19.639-13.508-56.168-42.142-109.439-85.983-153.281s-97.113-72.475-153.281-85.983c-6.248 15.086-12.765 31.956-19.237 49.882 22.826 2.553 40.574 21.906 40.574 45.413 0 25.243-20.464 45.707-45.707 45.707-8.2 0-15.889-2.17-22.543-5.952-12.481 43.253-22.449 86.576-26.503 122.332-3.619 31.922 23.376 58.917 55.298 55.298 35.199-3.991 77.731-13.717 120.31-25.924-2.984-6.073-4.665-12.901-4.665-20.125z" fill="#e7889d"/><path d="m55.648 507.753c35.199-3.991 77.731-13.717 120.31-25.924-2.984-6.073-4.665-12.901-4.665-20.125 0-11.123 3.977-21.315 10.581-29.24-46.979-26.295-81.171-66.496-103.277-106.937-7.92 6.585-18.097 10.547-29.201 10.547-8.2 0-15.889-2.17-22.543-5.952-12.481 43.253-22.449 86.576-26.503 122.332-3.619 31.922 23.377 58.918 55.298 55.299z" fill="#e16e7e"/><g><g><path d="m102.202 432.232c9.983 9.983 7.913 28.237-4.622 40.773-12.536 12.535-30.79 14.605-40.773 4.622s-7.913-28.237 4.622-40.773c12.536-12.535 30.79-14.605 40.773-4.622z" fill="#fff"/><path d="m179.835 354.599c9.983 9.983 28.237 7.913 40.773-4.623 12.535-12.535 14.605-30.79 4.622-40.773s-28.237-7.913-40.773 4.622c-12.535 12.536-14.604 30.791-4.622 40.774z" fill="#fff"/><path d="m145.431 361.228c-11.31-11.31-20.565-4.179-30.672 5.928s-17.237 19.362-5.928 30.672c11.309 11.309 28.671 12.284 38.777 2.177 10.107-10.107 9.132-27.468-2.177-38.777z" fill="#4e5660"/></g><g fill="#4e5660"><path d="m61.719 437.056c-1.92 0-3.839-.732-5.304-2.197l-9.268-9.268c-2.929-2.929-2.929-7.678.001-10.606 2.928-2.93 7.677-2.929 10.607 0l9.268 9.268c2.929 2.929 2.929 7.678-.001 10.607-1.464 1.463-3.384 2.196-5.303 2.196z"/><path d="m177.159 321.616c-1.919 0-3.839-.732-5.303-2.197l-9.268-9.268c-2.93-2.929-2.93-7.677-.001-10.606 2.93-2.929 7.679-2.93 10.607 0l9.268 9.268c2.93 2.929 2.93 7.677.001 10.606-1.465 1.464-3.385 2.197-5.304 2.197z"/></g></g><path d="m431.97 113.563-10.057 19.382c-4.005 7.719-15.047 7.719-19.052 0l-10.057-19.382c-1.019-1.964-2.62-3.564-4.583-4.583l-19.382-10.057c-7.719-4.005-7.719-15.047 0-19.052l19.382-10.057c1.964-1.019 3.564-2.62 4.583-4.583l10.057-19.382c4.005-7.719 15.047-7.719 19.052 0l10.057 19.381c1.019 1.964 2.62 3.564 4.583 4.583l19.382 10.057c7.719 4.005 7.719 15.047 0 19.052l-19.382 10.057c-1.964 1.019-3.564 2.62-4.583 4.584z" fill="#8de1ce"/></g></svg>