<?xml version="1.0" encoding="iso-8859-1"?>
<!-- Generator: Adobe Illustrator 19.0.0, SVG Export Plug-In . SVG Version: 6.00 Build 0)  -->
<svg version="1.1" id="Capa_1" xmlns="http://www.w3.org/2000/svg" xmlns:xlink="http://www.w3.org/1999/xlink" x="0px" y="0px"
	 viewBox="0 0 468.293 468.293" style="enable-background:new 0 0 468.293 468.293;" xml:space="preserve">
<path style="fill:#3A556A;" d="M468.293,299.692H0V38.749c0-10.345,8.386-18.732,18.732-18.732h430.829
	c10.345,0,18.732,8.386,18.732,18.732V299.692z"/>
<path style="fill:#64798A;" d="M323.069,426.743h-17.127v-17.899c0-3.213-2.604-5.817-5.817-5.817s-5.817-2.604-5.817-5.817v-14.67
	H173.985v14.67c0,3.213-2.604,5.817-5.817,5.817c-3.213,0-5.817,2.605-5.817,5.817v17.899h-17.127
	c-5.947,0-10.767,4.82-10.767,10.767c0,5.946,4.82,10.766,10.767,10.766h177.846c5.947,0,10.767-4.82,10.767-10.766
	C333.836,431.563,329.016,426.743,323.069,426.743z"/>
<g>
	<rect x="141.605" y="108.987" style="fill:#FCD462;" width="191.894" height="23.358"/>
	<rect x="141.612" y="62.289" style="fill:#FCD462;" width="191.894" height="23.358"/>
</g>
<rect x="141.605" y="85.635" style="fill:#F6C358;" width="191.894" height="23.358"/>
<path style="fill:#E1E6E9;" d="M333.481,62.29l30.982,17.518l23.242,13.163c3.385,1.917,3.385,6.794,0,8.711l-23.242,13.164
	l-30.982,17.519L333.481,62.29z"/>
<path style="fill:#64798A;" d="M364.463,79.807l23.242,13.163c3.385,1.917,3.385,6.794,0,8.711l-23.242,13.164L364.463,79.807z"/>
<rect x="126.245" y="62.314" style="fill:#E1E6E9;" width="15.36" height="70.075"/>
<path style="fill:#44C4A1;" d="M126.243,62.29l0,70.075l-29.463,0.001c-10.345,0-18.732-8.386-18.732-18.731l0-32.611
	c0-10.345,8.386-18.732,18.732-18.732L126.243,62.29z"/>
<rect x="78.055" y="163.266" style="fill:#EBF0F3;" width="312.195" height="94.158"/>
<g>
	<rect x="346.661" y="163.272" style="fill:#D5D6DB;" width="11.426" height="32.087"/>
	<rect x="317.065" y="163.272" style="fill:#D5D6DB;" width="11.426" height="16.859"/>
	<rect x="287.532" y="163.272" style="fill:#D5D6DB;" width="11.426" height="32.087"/>
	<rect x="257.986" y="163.272" style="fill:#D5D6DB;" width="11.426" height="16.859"/>
	<rect x="228.464" y="163.272" style="fill:#D5D6DB;" width="11.426" height="32.087"/>
	<rect x="198.868" y="163.272" style="fill:#D5D6DB;" width="11.426" height="16.859"/>
	<rect x="169.335" y="163.272" style="fill:#D5D6DB;" width="11.426" height="32.087"/>
	<rect x="139.782" y="163.272" style="fill:#D5D6DB;" width="11.426" height="16.859"/>
	<rect x="110.205" y="163.272" style="fill:#D5D6DB;" width="11.426" height="32.087"/>
	<path style="fill:#D5D6DB;" d="M468.293,299.692H0v64.356c0,10.345,8.386,18.732,18.732,18.732h430.829
		c10.345,0,18.732-8.386,18.732-18.732V299.692z"/>
</g>
<circle style="fill:#3A556A;" cx="234.146" cy="341.229" r="29.271"/>
<g>
</g>
<g>
</g>
<g>
</g>
<g>
</g>
<g>
</g>
<g>
</g>
<g>
</g>
<g>
</g>
<g>
</g>
<g>
</g>
<g>
</g>
<g>
</g>
<g>
</g>
<g>
</g>
<g>
</g>
</svg>
