<svg id="Flat" height="512" viewBox="0 0 64 64" width="512" xmlns="http://www.w3.org/2000/svg"><path d="m10 14h52v28h-52z" fill="#7da834"/><path d="m6 18h52v28h-52z" fill="#a5c56f"/><path d="m2 22h52v28h-52z" fill="#7da834"/><path d="m45 46h-34a5 5 0 0 0 -5-5v-10a5 5 0 0 0 5-5h34a5 5 0 0 0 5 5v10a5 5 0 0 0 -5 5z" fill="#a5c56f"/><circle cx="28" cy="36" fill="#fff" r="10"/><path d="m32 39a3.9955 3.9955 0 0 0 -3-3.858v-3.8728a2.0057 2.0057 0 0 1 .7324.7308 1 1 0 1 0 1.7305-1.002 4.0128 4.0128 0 0 0 -2.4629-1.8674v-.6306a1 1 0 0 0 -2 0v.642a3.9807 3.9807 0 0 0 0 7.716v3.872a2.01 2.01 0 0 1 -.73-.725 1 1 0 1 0 -1.7265 1.0078 4.0187 4.0187 0 0 0 2.4565 1.8566v.6306a1 1 0 0 0 2 0v-.642a3.9955 3.9955 0 0 0 3-3.858zm-6-6a1.9938 1.9938 0 0 1 1-1.7217v3.4434a1.9938 1.9938 0 0 1 -1-1.7217zm3 7.7217v-3.4434a1.9821 1.9821 0 0 1 0 3.4434z" fill="#7da834"/></svg>