<?xml version="1.0" encoding="iso-8859-1"?>
<!-- Generator: Adobe Illustrator 19.0.0, SVG Export Plug-In . SVG Version: 6.00 Build 0)  -->
<svg version="1.1" id="Capa_1" xmlns="http://www.w3.org/2000/svg" xmlns:xlink="http://www.w3.org/1999/xlink" x="0px" y="0px"
	 viewBox="0 0 488 488" style="enable-background:new 0 0 488 488;" xml:space="preserve">
<g>
	<circle style="fill:#91E8E8;" cx="92" cy="80" r="80"/>
	<circle style="fill:#91E8E8;" cx="244" cy="80" r="80"/>
	<circle style="fill:#91E8E8;" cx="396" cy="80" r="80"/>
</g>
<path style="fill:#F9F6ED;" d="M452,360H92v128h384V384C476,370.745,465.255,360,452,360z"/>
<g>
	<path style="fill:#5A5A60;" d="M188,424c-20.96,0-40.48,12.72-54.8,35.76l13.6,8.48c4.475-7.515,10.308-14.134,17.2-19.52
		c0,13.255,10.745,24,24,24s24-10.745,24-24c6.921,5.378,12.781,11.998,17.28,19.52l13.6-8.48C228.48,436.72,208.96,424,188,424z
		 M196,448c0,4.418-3.582,8-8,8s-8-3.582-8-8s3.582-8,8-8S196,443.582,196,448z"/>
	<path style="fill:#5A5A60;" d="M332,424c-20.96,0-40.48,12.72-54.8,35.76l13.6,8.48c4.475-7.515,10.308-14.134,17.2-19.52
		c0,13.255,10.745,24,24,24s24-10.745,24-24c6.921,5.378,12.781,11.998,17.28,19.52l13.6-8.48C372.48,436.72,352.96,424,332,424
		L332,424z M340,448c0,4.418-3.582,8-8,8s-8-3.582-8-8s3.582-8,8-8S340,443.582,340,448z"/>
</g>
<path style="fill:#1895AA;" d="M100,120H84V83.44l40-24v-22l-32-12.8l-32,12.8V64H44V26.56l48-19.2l48,19.2v42l-40,24V120z"/>
<path style="fill:#EF9F35;" d="M460,353.04c-3.669-54.703-49.174-97.163-104-97.04H4v8c0,57.438,46.562,104,104,104h312v88
	c0,17.673,14.327,32,32,32h32V384C483.989,369.417,474.12,356.686,460,353.04z"/>
<g>
	<path style="fill:#1895AA;" d="M84,136h16v16H84V136z"/>
	<path style="fill:#1895AA;" d="M252,120h-16V83.44l40-24v-22l-32-12.8l-32,12.8V64h-16V26.56l48-19.2l48,19.2v42l-40,24V120z"/>
	<path style="fill:#1895AA;" d="M236,136h16v16h-16V136z"/>
	<path style="fill:#1895AA;" d="M404,120h-16V83.44l40-24v-22l-32-12.8l-32,12.8V64h-16V26.56l48-19.2l48,19.2v42l-40,24V120z"/>
	<path style="fill:#1895AA;" d="M388,136h16v16h-16V136z"/>
</g>
<g>
</g>
<g>
</g>
<g>
</g>
<g>
</g>
<g>
</g>
<g>
</g>
<g>
</g>
<g>
</g>
<g>
</g>
<g>
</g>
<g>
</g>
<g>
</g>
<g>
</g>
<g>
</g>
<g>
</g>
</svg>
