<svg height="512" viewBox="0 0 64 64" width="512" xmlns="http://www.w3.org/2000/svg"><g id="flat"><path d="m3 43v-38a2 2 0 0 1 2-2h54a2 2 0 0 1 2 2v38z" fill="#394d5c"/><path d="m3 43h58a0 0 0 0 1 0 0v6a2 2 0 0 1 -2 2h-54a2 2 0 0 1 -2-2v-6a0 0 0 0 1 0 0z" fill="#aabece"/><path d="m39 61h-14l2-10h10z" fill="#7d8d9c"/><path d="m31 46h2v2h-2z" fill="#f4f4e6"/><g fill="#e33e5c"><path d="m11 30h6v8h-6z"/><path d="m23 26h6v12h-6z"/><path d="m35 21h6v17h-6z"/><path d="m47 16h6v22h-6z"/></g><path d="m56 6h2v2h-2z" fill="#ececec"/><path d="m56 10h2v2h-2z" fill="#ececec"/><path d="m6 6h6v2h-6z" fill="#ececec"/><path d="m6 10h9v2h-9z" fill="#ececec"/><path d="m6 37h52v2h-52z" fill="#b11e48"/><path d="m13.293 16.293-7 7 1.414 1.414 6.387-6.387 3.306 2.48a1 1 0 0 0 1.307-.093l7.293-7.293 4.293 4.293a1 1 0 0 0 1.414 0l7.293-7.293 4.293 4.293a1 1 0 0 0 1.414 0l5.293-5.293v2.586h2v-5a1 1 0 0 0 -1-1h-5v2h2.586l-4.586 4.586-4.293-4.293a1 1 0 0 0 -1.414 0l-7.293 7.293-4.293-4.293a1 1 0 0 0 -1.414 0l-7.387 7.387-3.306-2.48a1 1 0 0 0 -1.307.093z" fill="#8ec13f"/></g></svg>