<?xml version="1.0"?>
<svg xmlns="http://www.w3.org/2000/svg" xmlns:xlink="http://www.w3.org/1999/xlink" xmlns:svgjs="http://svgjs.com/svgjs" version="1.1" width="512" height="512" x="0" y="0" viewBox="0 0 512 512" style="enable-background:new 0 0 512 512" xml:space="preserve" class=""><g><g xmlns="http://www.w3.org/2000/svg"><path d="m248.517 386.75c0-4.139 3.345-7.513 7.483-7.513s7.512 3.374 7.512 7.513v46.545c6.35 1.417 12.02 4.648 16.47 9.1 6.122 6.123 9.921 14.598 9.921 23.953 0 9.383-3.799 17.858-9.921 23.981-6.151 6.123-14.627 9.921-23.981 9.921-9.355 0-17.83-3.798-23.953-9.921-6.151-6.123-9.95-14.599-9.95-23.981 0-9.355 3.798-17.83 9.95-23.953 4.422-4.451 10.12-7.683 16.47-9.1v-46.545zm20.863 66.246c-3.431-3.43-8.164-5.557-13.38-5.557s-9.95 2.127-13.351 5.557c-3.43 3.401-5.556 8.135-5.556 13.352 0 5.244 2.126 9.95 5.556 13.38 3.401 3.43 8.135 5.527 13.351 5.527s9.949-2.098 13.38-5.527c3.401-3.43 5.527-8.136 5.527-13.38 0-5.217-2.126-9.951-5.527-13.352z" fill="#ffffff" data-original="#365e7d" style="" class=""/><g clip-rule="evenodd" fill-rule="evenodd"><path d="m27.809 35.504h456.384c3.316 0 6.009 2.722 6.009 6.01v344.215c0 3.317-2.692 6.011-6.009 6.011h-456.384c-3.288 0-5.981-2.693-5.981-6.011v-344.215c0-3.288 2.693-6.01 5.981-6.01z" fill="#35495e" data-original="#fff9df" style="" class=""/><path d="m454.2 35.504h29.992c3.316 0 6.009 2.722 6.009 6.01v344.215c0 3.317-2.692 6.011-6.009 6.011h-29.992c3.288 0 6.01-2.693 6.01-6.011v-344.215c0-3.288-2.722-6.01-6.01-6.01z" fill="#406183" data-original="#fff3bf" style="" class=""/><path d="m21.828 11.75h468.374c11.991 0 21.799 9.808 21.799 21.827 0 11.991-9.808 21.799-21.799 21.799h-468.374c-12.02 0-21.828-9.808-21.828-21.799 0-12.019 9.808-21.827 21.828-21.827z" fill="#d68756" data-original="#d68756" style="" class=""/><path d="m460.21 11.75h29.991c11.991 0 21.799 9.808 21.799 21.827 0 11.991-9.808 21.799-21.799 21.799h-29.991c11.991 0 21.799-9.808 21.799-21.799 0-12.019-9.808-21.827-21.799-21.827z" fill="#c47443" data-original="#c47443" style="" class=""/><path d="m100.121 159.267c16.186 9.326 35.291 8.249 48.643-1.275 1.559-16.299-7.059-33.393-23.244-42.719-13.323-7.653-30.303-9.354-45.752-.681-3.685 2.069-3.203 4.394-2.976 8.079.935 16.328 10.998 29.396 23.329 36.596z" fill="#b3e59f" data-original="#b3e59f" style="" class=""/><path d="m108.767 163.207c14.003 4.763 28.97 2.665 39.997-5.216 1.559-16.299-7.059-33.393-23.244-42.719-11.282-6.491-25.229-8.702-38.637-3.94 3.005 1.049 5.896 2.353 8.646 3.94 12.671 7.313 20.722 19.39 22.848 32.117 1.786 10.659.623 12.161-9.61 15.818z" fill="#95d6a4" data-original="#95d6a4" style="" class=""/></g><path d="m156.248 203.346c0 4.139-3.345 7.512-7.484 7.512s-7.512-3.373-7.512-7.512v-45.355c0-4.139 3.374-7.483 7.512-7.483 4.139 0 7.484 3.345 7.484 7.483z" fill="#c47443" data-original="#c47443" style="" class=""/><path clip-rule="evenodd" d="m148.764 337.852c-10.403 0-20.381 8.815-29.65 5.527-34.3-12.189-58.849-44.93-58.849-83.425 0-25.483 4.281-41.697 21.516-57.827 25.683-24.095 44.76 1.219 66.983 1.219 22.196 0 41.273-25.314 66.983-1.219 17.234 16.13 21.516 32.344 21.516 57.827 0 38.495-24.549 71.236-58.876 83.425-9.242 3.288-19.22-5.527-29.623-5.527z" fill="#fc7070" fill-rule="evenodd" data-original="#fc7070" style="" class=""/><path clip-rule="evenodd" d="m176.402 195.267c12.189-4.535 24.69-6.888 39.345 6.86 17.234 16.13 21.516 32.344 21.516 57.827 0 38.495-24.549 71.236-58.876 83.425-6.605 2.353-13.578-1.474-20.807-3.854 29.424-14.4 49.692-44.619 49.692-79.57 0-25.483-4.309-41.697-21.544-57.827-3.203-3.006-6.292-5.245-9.326-6.861z" fill="#d15a63" fill-rule="evenodd" data-original="#d15a63" style="" class=""/><path clip-rule="evenodd" d="m281.881 96.394h46.12c3.288 0 6.01 2.692 6.01 6.009v46.121c0 3.288-2.722 5.981-6.01 5.981h-46.12c-3.289 0-5.981-2.693-5.981-5.981v-46.121c-.001-3.317 2.692-6.009 5.981-6.009z" fill="#b3e59f" fill-rule="evenodd" data-original="#b3e59f" style="" class=""/><path clip-rule="evenodd" d="m281.881 190.845h46.12c3.288 0 6.01 2.693 6.01 5.982v46.12c0 3.288-2.722 6.01-6.01 6.01h-46.12c-3.289 0-5.981-2.722-5.981-6.01v-46.12c-.001-3.289 2.692-5.982 5.981-5.982z" fill="#fc7070" fill-rule="evenodd" data-original="#fc7070" style="" class=""/><path clip-rule="evenodd" d="m281.881 285.268h46.12c3.288 0 6.01 2.693 6.01 6.01v46.093c0 3.316-2.722 6.009-6.01 6.009h-46.12c-3.289 0-5.981-2.692-5.981-6.009v-46.093c-.001-3.317 2.692-6.01 5.981-6.01z" fill="#6bbef6" fill-rule="evenodd" data-original="#6bbef6" style="" class=""/><path d="m368.706 306.841c-4.139 0-7.512-3.373-7.512-7.513 0-4.139 3.373-7.512 7.512-7.512h91.787c4.139 0 7.513 3.373 7.513 7.512 0 4.14-3.374 7.513-7.513 7.513zm0-188.876c-4.139 0-7.512-3.373-7.512-7.512s3.373-7.483 7.512-7.483h91.787c4.139 0 7.513 3.345 7.513 7.483 0 4.139-3.374 7.512-7.513 7.512zm0 29.991c-4.139 0-7.512-3.344-7.512-7.512 0-4.139 3.373-7.482 7.512-7.482h75.8c4.139 0 7.483 3.344 7.483 7.482 0 4.168-3.345 7.512-7.483 7.512zm0 64.433c-4.139 0-7.512-3.346-7.512-7.484 0-4.167 3.373-7.512 7.512-7.512h91.787c4.139 0 7.513 3.345 7.513 7.512 0 4.139-3.374 7.484-7.513 7.484zm0 29.991c-4.139 0-7.512-3.345-7.512-7.483s3.373-7.512 7.512-7.512h75.8c4.139 0 7.483 3.373 7.483 7.512s-3.345 7.483-7.483 7.483zm0 94.451c-4.139 0-7.512-3.373-7.512-7.512s3.373-7.483 7.512-7.483h75.8c4.139 0 7.483 3.345 7.483 7.483 0 4.139-3.345 7.512-7.483 7.512z" fill="#ffffff" data-original="#365e7d" style="" class=""/></g></g></svg>
