<svg height="512pt" viewBox="0 0 512 512" width="512pt" xmlns="http://www.w3.org/2000/svg"><g fill-rule="evenodd"><path d="m335.40625 423.921875-77.007812-24.726563-71.441407 24.726563-11.097656 42.523437 82.542969 32.964844 88.074218-32.964844zm0 0" fill="#c5bec7"/><path d="m346.476562 466.445312h-207.273437c-12.367187 0-22.464844 10.09375-22.464844 22.453126v.648437c0 12.359375 10.097657 22.453125 22.464844 22.453125h243.957031c12.367188 0 22.464844-10.09375 22.464844-22.453125v-.648437c0-12.359376-10.097656-22.453126-22.464844-22.453126zm0 0" fill="#e6e6e6"/><path d="m228.207031 445.195312h112.734375l-5.535156-21.277343h-148.449219l-5.53125 21.277343-5.566406 21.246094h25.9375l3.09375-11.855468c4.503906-10.152344 4.503906-9.390626 23.316406-9.390626zm0 0" fill="#b3b3b3"/><path d="m511 369.476562-252.175781-23.074218-258.824219 23.074218v27.484376c0 14.835937 12.128906 26.957031 27 26.957031h457.03125c14.835938 0 26.96875-12.121094 26.96875-26.957031zm0 0" fill="#e6e6e6"/><path d="m484.03125 33.992188h-457.03125c-14.871094 0-27 12.125-27 26.984374v308.5h511v-308.5c0-14.859374-12.128906-26.984374-26.96875-26.984374zm0 0" fill="#a39b9b"/><path d="m63.652344 396.964844v-27.488282h-63.652344v27.488282c0 14.832031 12.128906 26.957031 27 26.957031h63.652344c-14.867188 0-27-12.125-27-26.957031zm0 0" fill="#c5c3d2"/><path d="m465.921875 330.160156c3.183594 0 5.773437-2.589844 5.773437-5.738281v-245.375c0-3.179687-2.589843-5.769531-5.773437-5.769531h-421.050781c-3.179688 0-5.769532 2.589844-5.769532 5.769531v245.375c0 3.148437 2.589844 5.738281 5.769532 5.738281zm0 0" fill="#87b6e2"/><path d="m39.101562 324.390625v-245.34375c0-3.179687 2.589844-5.769531 5.769532-5.769531h18.78125v-39.285156h-36.652344c-14.871094 0-27 12.125-27 26.984374v308.5h63.652344v-39.316406h-18.78125c-3.179688 0-5.769532-2.589844-5.769532-5.769531zm0 0" fill="#817676"/><path d="m63.652344 330.160156v-256.882812h-18.78125c-3.179688 0-5.769532 2.589844-5.769532 5.769531v245.34375c0 3.179687 2.589844 5.769531 5.769532 5.769531zm0 0" fill="#6e90cc"/><path d="m87.441406 52.53125 162.820313 20.746094 173.089843-20.746094v-37.992188c0-8.007812-6.539062-14.539062-14.546874-14.539062h-306.816407c-7.980469 0-14.546875 6.53125-14.546875 14.539062zm0 0" fill="#e6e6e6"/><path d="m250.261719 52.53125h-162.820313v196.199219c0 4.0625 1.679688 7.769531 4.417969 10.417969 2.621094 2.5625 6.214844 4.121093 10.128906 4.121093h306.816407c8.007812 0 14.546874-6.53125 14.546874-14.539062v-196.199219zm0 0" fill="#98e38d"/><path d="m116.148438 33.992188v-19.453126c0-8.007812 6.566406-14.539062 14.574218-14.539062h-28.734375c-7.980469 0-14.546875 6.53125-14.546875 14.539062v37.992188h28.707032zm0 0" fill="#bdb8c5"/><path d="m116.148438 52.53125h-28.707032v196.199219c0 4.058593 1.679688 7.769531 4.417969 10.417969 2.621094 2.558593 6.214844 4.121093 10.128906 4.121093h28.734375c-8.007812 0-14.574218-6.535156-14.574218-14.539062zm0 0" fill="#51b87c"/><path d="m156.75 501.285156c-2.117188-3.410156-3.355469-7.441406-3.355469-11.738281v-.648437c0-12.363282 10.128907-22.457032 22.464844-22.457032h-36.65625c-12.363281 0-22.464844 10.097656-22.464844 22.457032v.648437c0 4.296875 1.207031 8.328125 3.328125 11.738281 3.972656 6.417969 11.070313 10.714844 19.136719 10.714844h36.65625c-8.039063 0-15.164063-4.296875-19.109375-10.714844zm0 0" fill="#c5c3d2"/></g><path d="m258.738281 403.839844h-.234375c-4.300781 0-7.789062-3.488282-7.789062-7.789063s3.488281-7.785156 7.789062-7.785156h.234375c4.300781 0 7.789063 3.484375 7.789063 7.785156s-3.488282 7.789063-7.789063 7.789063zm0 0" fill="#817676"/><path d="m124.863281 32.417969h-.175781c-4.300781 0-7.789062-3.484375-7.789062-7.785157 0-4.300781 3.488281-7.789062 7.789062-7.789062h.175781c4.300781 0 7.789063 3.488281 7.789063 7.789062 0 4.300782-3.488282 7.785157-7.789063 7.785157zm0 0" fill="#ff4d48"/><path d="m151.039062 32.417969h-.148437c-4.300781 0-7.785156-3.484375-7.785156-7.785157 0-4.300781 3.484375-7.789062 7.785156-7.789062h.148437c4.300782 0 7.789063 3.488281 7.789063 7.789062 0 4.300782-3.488281 7.785157-7.789063 7.785157zm0 0" fill="#ffd000"/><path d="m177.242188 32.535156h-.148438c-4.300781 0-7.785156-3.484375-7.785156-7.785156s3.484375-7.785156 7.785156-7.785156h.148438c4.300781 0 7.789062 3.484375 7.789062 7.785156s-3.488281 7.785156-7.789062 7.785156zm0 0" fill="#98e38d"/><path d="m238.484375 203.609375c-.757813 0-1.53125-.113281-2.292969-.347656-4.113281-1.269531-6.417968-5.625-5.152344-9.734375l28.855469-93.644532c1.265625-4.109374 5.625-6.410156 9.734375-5.148437 4.109375 1.269531 6.417969 5.625 5.148438 9.734375l-28.851563 93.644531c-1.03125 3.34375-4.113281 5.496094-7.441406 5.496094zm0 0" fill="#817676"/><path d="m298.75 195.070312c-1.992188 0-3.988281-.761718-5.507812-2.28125-3.039063-3.042968-3.039063-7.972656.003906-11.011718l27.617187-27.605469c.980469-.988281.992188-2.679687 0-3.667969l-27.617187-27.605468c-3.042969-3.042969-3.042969-7.972657-.003906-11.011719 3.039062-3.042969 7.972656-3.042969 11.011718-.003907l27.617188 27.601563c7.066406 7.0625 7.074218 18.582031.019531 25.679687l-27.636719 27.625c-1.519531 1.523438-3.511718 2.28125-5.503906 2.28125zm0 0" fill="#817676"/><path d="m202.328125 195.628906c-1.992187 0-3.984375-.757812-5.503906-2.277344l-27.644531-27.601562c-3.425782-3.425781-5.3125-7.988281-5.3125-12.855469 0-4.863281 1.886718-9.425781 5.308593-12.847656l27.648438-27.609375c3.042969-3.035156 7.972656-3.035156 11.015625.007812 3.039062 3.046876 3.03125 7.976563-.011719 11.015626l-27.644531 27.601562c-.644532.644531-.738282 1.425781-.738282 1.832031 0 .410157.09375 1.191407.742188 1.835938l27.644531 27.601562c3.042969 3.039063 3.046875 7.96875.007813 11.011719-1.523438 1.523438-3.519532 2.285156-5.511719 2.285156zm0 0" fill="#817676"/></svg>