<svg id="Layer_3" enable-background="new 0 0 64 64" height="512" viewBox="0 0 64 64" width="512" xmlns="http://www.w3.org/2000/svg"><path d="m14 12v-10h-12v10h4l4 4v-4z" fill="#c9c6ca"/><path d="m46 12v-10h16v10h-6l-4 4v-4z" fill="#c9c6ca"/><path d="m38 57h12v5h-12z" fill="#738a5a"/><path d="m38 57h9v5h-9z" fill="#9ab878"/><path d="m14 51h12v11h-12z" fill="#8f484c"/><path d="m14 51h9v11h-9z" fill="#bf6065"/><path d="m12 45h16v6h-16z" fill="#bf6065"/><path d="m12 45h13v6h-13z" fill="#ff8087"/><path d="m36 49h16v8h-16z" fill="#9ab878"/><path d="m36 49h13v8h-13z" fill="#cdf5a0"/><path d="m14 32v-14c0-1.105.895-2 2-2 1.105 0 2 .895 2 2v10-12c0-1.105.895-2 2-2 1.105 0 2 .895 2 2v12-10c0-1.105.895-2 2-2 1.105 0 2 .895 2 2v10-8c0-1.105.895-2 2-2 1.105 0 2 .895 2 2v11.343c0 3.622-1.439 7.096-4 9.657v4h-12v-4c-2.561-2.561-4-6.035-4-9.657v-3.343c0-1.105.895-2 2-2 1.105 0 2 .895 2 2v4c2.209 0 4 1.791 4 4" fill="#f7d291"/><path d="m38 36v-14c0-1.105.895-2 2-2 1.105 0 2 .895 2 2v10-12c0-1.105.895-2 2-2 1.105 0 2 .895 2 2v12-10c0-1.105.895-2 2-2 1.105 0 2 .895 2 2v10-8c0-1.105.895-2 2-2 1.105 0 2 .895 2 2v11.343c0 3.622-1.439 7.096-4 9.657v4h-12v-4c-2.561-2.561-4-6.035-4-9.657v-3.343c0-1.105.895-2 2-2 1.105 0 2 .895 2 2v4c2.209 0 4 1.791 4 4" fill="#f7d291"/><path d="m2 61h60v2h-60z" fill="#c9c6ca"/><g fill="#fff"><path d="m53 5h2v4h-2z"/><path d="m7 5h2v4h-2z"/><path d="m49 5h2v4h-2z"/><path d="m57 5h2v4h-2z"/></g></svg>