<?xml version="1.0"?>
<svg xmlns="http://www.w3.org/2000/svg" xmlns:xlink="http://www.w3.org/1999/xlink" xmlns:svgjs="http://svgjs.com/svgjs" version="1.1" width="512" height="512" x="0" y="0" viewBox="0 0 512.004 512.004" style="enable-background:new 0 0 512 512" xml:space="preserve" class=""><g>
<g xmlns="http://www.w3.org/2000/svg">
	<path style="" d="M123.141,426.32c-19.853,10.951-28.466,20.797-28.466,20.797l-30.244-57.77l0,0L7.499,427.449   l45.83,25.206v50.769l83.31-49.183l-13.329-27.814L123.141,426.32z" fill="#b32425" data-original="#b32425"/>
	<path style="" d="M388.862,426.32c19.853,10.951,28.466,20.797,28.466,20.797l30.244-57.77l0,0l56.933,38.103   l-45.83,25.206v50.769l-83.31-49.183l13.329-27.814L388.862,426.32z" fill="#b32425" data-original="#b32425"/>
</g>
<g xmlns="http://www.w3.org/2000/svg">
	<path style="" d="M123.31,426.426c0,0-0.13-0.004-0.352-0.004c-19.721,10.91-28.283,20.694-28.283,20.694   l41.962,7.123L123.31,426.426z" fill="#8c1e23" data-original="#8c1e23" class=""/>
	<path style="" d="M388.693,426.426c0,0,0.13-0.004,0.352-0.004c19.721,10.91,28.283,20.694,28.283,20.694   l-41.962,7.123L388.693,426.426z" fill="#8c1e23" data-original="#8c1e23" class=""/>
</g>
<g xmlns="http://www.w3.org/2000/svg">
	<path style="" d="M103.721,333.777c-35.395,16.786-50.392,34.362-50.392,34.362l41.347,78.978   c0,0,18.042-20.638,62.149-35.392C134.415,388.047,117.089,361.391,103.721,333.777z" fill="#e93234" data-original="#e93234" class=""/>
	<path style="" d="M408.283,333.777c-13.369,27.614-30.694,54.269-53.104,77.948   c44.107,14.754,62.149,35.392,62.149,35.392l41.347-78.978C458.674,368.139,443.677,350.562,408.283,333.777z" fill="#e93234" data-original="#e93234" class=""/>
</g>
<path xmlns="http://www.w3.org/2000/svg" style="" d="M256.001,478.523C482.056,388.6,450.774,84.799,450.774,84.799  c-118.172-12.19-194.773-76.22-194.773-76.22S179.4,72.609,61.229,84.799C61.229,84.799,29.947,388.6,256.001,478.523z" fill="#3de4f5" data-original="#f5ba3d" class=""/>
<g xmlns="http://www.w3.org/2000/svg">
	<path style="" d="M408.283,333.777c-13.369,27.614-30.694,54.269-53.104,77.948c6.637,2.22,12.673,4.574,18.157,6.971   c22.769-22.413,40.631-47.826,54.621-74.389C422.265,340.875,415.73,337.309,408.283,333.777z" fill="#b32425" data-original="#b32425"/>
	<path style="" d="M103.721,333.777c13.369,27.614,30.694,54.269,53.104,77.948c-6.637,2.22-12.673,4.574-18.157,6.971   c-22.769-22.413-40.631-47.826-54.621-74.389C89.738,340.875,96.272,337.309,103.721,333.777z" fill="#b32425" data-original="#b32425"/>
</g>
<path xmlns="http://www.w3.org/2000/svg" style="" d="M450.774,84.799c-8.158-0.842-16.111-1.938-23.861-3.236c2.486,69.844-3.952,301.074-189.221,388.939  c5.911,2.83,12.004,5.513,18.31,8.021C482.056,388.6,450.774,84.799,450.774,84.799z" fill="#25b6ef" data-original="#ef9325" class=""/>
<path xmlns="http://www.w3.org/2000/svg" style="" d="M256.001,422.549c172.204-68.502,148.374-299.932,148.374-299.932  c-90.021-9.286-148.374-58.064-148.374-58.064s-58.353,48.777-148.374,58.064C107.627,122.617,83.797,354.047,256.001,422.549z" fill="#ffdb57" data-original="#ffdb57" class=""/>
<path xmlns="http://www.w3.org/2000/svg" style="" d="M235.92,303.249c-4.976,0-9.749-1.977-13.268-5.495l-42.675-42.675  c-7.328-7.328-7.328-19.208,0-26.535c7.328-7.328,19.207-7.328,26.534,0l29.408,29.408l72.083-72.083  c7.328-7.328,19.208-7.329,26.534-0.001c7.328,7.328,7.328,19.208,0,26.535l-85.35,85.349  C245.669,301.272,240.895,303.249,235.92,303.249z" fill="#009db7" data-original="#00b76c" class=""/>
<path xmlns="http://www.w3.org/2000/svg" d="M508.674,421.218l-51.338-34.359l7.98-15.243c1.42-2.712,1.049-6.015-0.939-8.344c-0.612-0.719-14.506-16.743-46.168-32.959  c11.325-24.654,20.44-51.615,27.248-80.662c20.488-87.412,13.1-162.467,12.775-165.619c-0.364-3.533-3.156-6.326-6.689-6.69  c-59.676-6.156-108.315-26.058-138.608-41.668c-32.93-16.969-51.941-32.694-52.125-32.847c-2.784-2.326-6.835-2.326-9.617,0  c-0.749,0.626-76.167,62.697-190.734,74.516c-3.533,0.365-6.325,3.157-6.689,6.69c-0.146,1.415-3.523,35.203,0.281,83.9  c0.323,4.128,3.921,7.218,8.058,6.891c4.129-0.322,7.214-3.931,6.892-8.058c-2.782-35.621-1.567-63.497-0.787-75.2  c59.369-7.112,107.689-27.039,138.157-42.786c24.832-12.834,41.84-24.805,49.63-30.679c7.788,5.874,24.798,17.845,49.629,30.679  c30.469,15.747,78.787,35.673,138.155,42.786c1.289,19.439,3.745,83.533-12.928,154.665c-7.223,30.815-17.114,59.146-29.539,84.718  c-0.348,0.716-0.704,1.422-1.056,2.132c-0.767,1.551-1.542,3.091-2.328,4.621c-0.443,0.862-0.886,1.723-1.335,2.579  c-0.834,1.589-1.681,3.164-2.535,4.73c-0.713,1.306-1.435,2.601-2.161,3.891c-0.652,1.158-1.307,2.313-1.969,3.457  c-0.667,1.15-1.341,2.293-2.019,3.43c-0.489,0.821-0.985,1.633-1.48,2.446c-1.6,2.627-3.227,5.223-4.89,7.779  c-0.122,0.187-0.24,0.377-0.362,0.564c-0.866,1.324-1.743,2.631-2.625,3.935c-0.378,0.559-0.758,1.117-1.14,1.672  c-5.212,7.598-10.704,14.863-16.47,21.767c-0.033,0.04-0.066,0.08-0.099,0.12c-1.117,1.336-2.246,2.655-3.383,3.965  c-0.896,1.029-1.801,2.045-2.71,3.059c-0.183,0.204-0.364,0.412-0.547,0.615c-1.027,1.138-2.062,2.265-3.106,3.383  c-0.053,0.057-0.106,0.115-0.16,0.172c-26.466,28.298-58.266,50.143-94.941,65.172c-35.908-14.727-76.107-39.926-110.203-82.992  c-0.109-0.138-0.218-0.277-0.327-0.415c-0.687-0.871-1.368-1.755-2.049-2.64c-12.437-16.272-23.475-34.3-32.954-53.88  c-0.221-0.457-0.484-0.881-0.78-1.271c-17.174-35.737-30.509-79.345-37.553-132.585c-0.543-4.105-4.322-6.994-8.416-6.449  c-4.105,0.543-6.993,4.312-6.45,8.416c6.463,48.846,18.728,92.993,36.525,131.691c-31.665,16.218-45.558,32.242-46.171,32.96  c-1.987,2.329-2.358,5.632-0.94,8.344l7.98,15.243L3.327,421.219c-2.175,1.457-3.434,3.942-3.32,6.557  c0.114,2.615,1.583,4.981,3.878,6.244l41.945,23.07v46.335c0,2.691,1.443,5.176,3.78,6.511c1.153,0.658,2.435,0.987,3.718,0.987  c1.318,0,2.637-0.348,3.812-1.042l83.31-49.183c0.052-0.031,0.098-0.066,0.149-0.098c0.085-0.053,0.168-0.108,0.251-0.164  c0.149-0.101,0.293-0.207,0.433-0.317c0.068-0.054,0.137-0.107,0.203-0.163c0.176-0.149,0.343-0.305,0.503-0.467  c0.026-0.026,0.053-0.049,0.078-0.076c0.194-0.203,0.374-0.416,0.542-0.637c0.005-0.007,0.012-0.013,0.018-0.021  c0.013-0.018,0.023-0.038,0.036-0.056c0.172-0.233,0.328-0.474,0.471-0.724c0.03-0.053,0.062-0.105,0.091-0.158  c0.145-0.268,0.276-0.542,0.387-0.824c0.019-0.048,0.034-0.097,0.052-0.146c0.09-0.244,0.167-0.492,0.232-0.743  c0.017-0.067,0.036-0.133,0.051-0.2c0.067-0.293,0.118-0.588,0.15-0.888c0.004-0.04,0.005-0.08,0.008-0.121  c0.024-0.27,0.032-0.541,0.026-0.813c-0.001-0.062-0.002-0.124-0.004-0.186c-0.014-0.307-0.043-0.615-0.095-0.921  c-0.004-0.021-0.01-0.042-0.014-0.064c-0.05-0.279-0.12-0.555-0.203-0.83c-0.022-0.072-0.044-0.143-0.067-0.214  c-0.098-0.293-0.208-0.584-0.345-0.869l-10.271-21.433c6.165-3.073,13.36-6.224,21.64-9.192  c27.675,28.248,60.589,50.051,98.461,65.116c0.891,0.354,1.83,0.531,2.771,0.531c0.941,0,1.881-0.177,2.771-0.531  c37.805-15.039,70.77-36.862,98.464-65.114c8.279,2.968,15.473,6.118,21.637,9.191l-10.271,21.433  c-0.137,0.285-0.247,0.577-0.345,0.87c-0.024,0.071-0.046,0.142-0.067,0.214c-0.083,0.275-0.153,0.552-0.203,0.831  c-0.004,0.021-0.01,0.042-0.013,0.063c-0.052,0.306-0.081,0.614-0.095,0.921c-0.003,0.063-0.003,0.125-0.004,0.187  c-0.005,0.272,0.002,0.543,0.026,0.813c0.004,0.04,0.004,0.081,0.008,0.121c0.031,0.299,0.083,0.595,0.15,0.887  c0.015,0.068,0.034,0.134,0.052,0.201c0.064,0.251,0.141,0.498,0.231,0.741c0.018,0.049,0.033,0.099,0.052,0.148  c0.111,0.282,0.241,0.555,0.386,0.822c0.029,0.054,0.061,0.107,0.092,0.16c0.143,0.248,0.298,0.49,0.469,0.721  c0.014,0.018,0.023,0.039,0.037,0.057c0.006,0.007,0.012,0.014,0.018,0.021c0.168,0.221,0.348,0.434,0.542,0.637  c0.025,0.027,0.052,0.05,0.078,0.076c0.159,0.162,0.327,0.318,0.503,0.467c0.066,0.056,0.135,0.109,0.203,0.163  c0.14,0.11,0.284,0.216,0.433,0.317c0.083,0.056,0.166,0.112,0.25,0.164c0.051,0.032,0.097,0.067,0.149,0.098l83.309,49.183  c1.175,0.694,2.492,1.042,3.812,1.042c1.282,0,2.565-0.329,3.718-0.987c2.337-1.335,3.78-3.82,3.78-6.511V457.09l41.945-23.07  c2.294-1.262,3.764-3.628,3.878-6.244C512.108,425.16,510.85,422.675,508.674,421.218z M112.24,442.012  c0.388-0.279,0.775-0.557,1.183-0.843c0.25-0.176,0.517-0.356,0.775-0.534c0.418-0.288,0.832-0.575,1.269-0.87  c0.264-0.177,0.545-0.36,0.817-0.54c0.459-0.305,0.913-0.607,1.393-0.918c0.172-0.111,0.358-0.225,0.533-0.337  c0.54-0.346,1.085-0.692,1.65-1.044c0.043-0.027,0.09-0.054,0.133-0.081l3.632,7.579l-11.923-2.024  C111.875,442.273,112.059,442.142,112.24,442.012z M56.942,446.085l-35.026-19.264l39.746-26.599l26.371,50.373  c0.145,0.277,0.307,0.542,0.483,0.795c0.069,0.099,0.15,0.188,0.223,0.283c0.116,0.151,0.23,0.305,0.357,0.445  c0.126,0.14,0.264,0.267,0.399,0.397c0.085,0.081,0.165,0.167,0.254,0.243c0.166,0.145,0.343,0.277,0.522,0.407  c0.065,0.047,0.128,0.097,0.194,0.142c0.2,0.136,0.409,0.258,0.622,0.375c0.05,0.027,0.099,0.056,0.15,0.082  c0.228,0.118,0.462,0.222,0.703,0.316c0.04,0.016,0.08,0.032,0.121,0.047c0.249,0.093,0.503,0.172,0.763,0.239  c0.036,0.009,0.073,0.018,0.11,0.026c0.163,0.039,0.322,0.089,0.489,0.117l21.758,3.693l-54.352,32.089v-37.635  C60.827,449.921,59.338,447.404,56.942,446.085z M143.745,408.483c-9.354,3.646-17.362,7.496-24.16,11.242  c-0.021,0.012-0.044,0.018-0.065,0.03c-0.064,0.035-0.125,0.07-0.189,0.106c-0.001,0-0.001,0-0.002,0.001  c-0.025,0.014-0.049,0.028-0.075,0.042c-0.318,0.176-0.629,0.351-0.941,0.527c-0.581,0.326-1.15,0.651-1.711,0.975  c-0.334,0.193-0.669,0.385-0.996,0.577c-0.037,0.022-0.073,0.043-0.11,0.065c-0.051,0.03-0.1,0.06-0.151,0.089  c-0.901,0.53-1.773,1.054-2.625,1.575c-0.131,0.08-0.267,0.162-0.397,0.242c-0.517,0.319-1.02,0.634-1.519,0.949  c-0.107,0.067-0.211,0.134-0.317,0.201c-0.013,0.008-0.025,0.016-0.038,0.024c-5.766,3.665-10.304,7.061-13.672,9.84l-24.53-46.855  L62.5,369.492c5.459-5.151,17.575-15.272,37.837-25.683c0.777,1.522,1.563,3.032,2.359,4.535c0.404,0.763,0.817,1.518,1.226,2.276  c1.035,1.92,2.082,3.828,3.148,5.717c0.237,0.421,0.462,0.853,0.7,1.272c8.01,14.075,16.843,27.203,26.457,39.392  c0.222,0.282,0.444,0.564,0.667,0.845c0.781,0.983,1.566,1.961,2.358,2.931c0.407,0.499,0.817,0.994,1.226,1.49  c0.697,0.843,1.392,1.687,2.095,2.52C141.621,406.03,142.679,407.263,143.745,408.483z M390.532,439.938l1.482-3.091  c0.044,0.027,0.09,0.055,0.134,0.082c0.564,0.35,1.105,0.695,1.642,1.039c0.177,0.113,0.366,0.229,0.541,0.342  c0.482,0.311,0.937,0.615,1.397,0.921c0.269,0.178,0.549,0.36,0.811,0.536c0.438,0.295,0.853,0.583,1.272,0.872  c0.258,0.178,0.524,0.358,0.774,0.534c0.4,0.281,0.78,0.553,1.161,0.827c0.188,0.135,0.38,0.272,0.563,0.405l-11.923,2.024  L390.532,439.938z M368.309,408.424c0.647-0.739,1.283-1.49,1.921-2.236c0.389-0.455,0.781-0.904,1.168-1.361  c0.977-1.155,1.943-2.321,2.905-3.493c0.033-0.04,0.066-0.079,0.098-0.119c4.695-5.732,9.213-11.676,13.539-17.84  c0.574-0.818,1.126-1.659,1.692-2.484c0.689-1.002,1.377-2.004,2.055-3.017c0.761-1.136,1.515-2.279,2.263-3.429  c0.604-0.926,1.2-1.86,1.795-2.795c0.992-1.556,1.973-3.122,2.943-4.703c0.657-1.071,1.308-2.147,1.954-3.228  c0.758-1.268,1.51-2.54,2.253-3.823c0.836-1.441,1.662-2.89,2.48-4.349c0.449-0.803,0.901-1.603,1.345-2.412  c1.071-1.947,2.123-3.913,3.162-5.892c0.353-0.673,0.703-1.348,1.053-2.024c0.243-0.47,0.491-0.936,0.732-1.408  c20.12,10.353,32.325,20.532,37.828,25.699l-34.269,65.459c-3.369-2.779-7.907-6.176-13.675-9.841  c-0.012-0.008-0.023-0.015-0.035-0.023c-0.105-0.067-0.21-0.134-0.316-0.201c-0.498-0.315-1.001-0.63-1.517-0.948  c-0.163-0.1-0.334-0.203-0.499-0.303c-0.82-0.502-1.659-1.006-2.525-1.516c-0.051-0.03-0.1-0.06-0.151-0.089  c-0.037-0.022-0.073-0.043-0.11-0.065c-0.327-0.192-0.663-0.384-0.996-0.577c-0.562-0.324-1.131-0.648-1.711-0.975  c-0.312-0.175-0.624-0.351-0.941-0.527c-0.025-0.014-0.049-0.028-0.075-0.042c-0.001,0-0.001-0.001-0.001-0.001  c-0.064-0.035-0.125-0.07-0.189-0.106c-0.021-0.012-0.044-0.019-0.065-0.031c-6.798-3.746-14.806-7.597-24.16-11.242  C368.275,408.463,368.292,408.443,368.309,408.424z M455.061,446.085c-2.395,1.318-3.885,3.836-3.885,6.57v37.635l-54.352-32.089  l21.758-3.693c0.079-0.013,0.154-0.04,0.232-0.056c0.185-0.038,0.368-0.081,0.549-0.132c0.131-0.037,0.261-0.077,0.389-0.121  c0.174-0.06,0.345-0.126,0.513-0.199c0.125-0.053,0.249-0.107,0.371-0.167c0.165-0.081,0.324-0.171,0.482-0.264  c0.115-0.067,0.23-0.132,0.34-0.205c0.158-0.105,0.308-0.22,0.458-0.336c0.099-0.077,0.201-0.149,0.295-0.231  c0.156-0.134,0.301-0.28,0.446-0.427c0.077-0.078,0.159-0.15,0.232-0.232c0.169-0.187,0.325-0.388,0.475-0.593  c0.038-0.052,0.082-0.098,0.118-0.151c0.178-0.255,0.341-0.523,0.487-0.802l26.372-50.373l39.745,26.599L455.061,446.085z" fill="#000000" data-original="#000000" style="" class=""/>
<path xmlns="http://www.w3.org/2000/svg" d="M412.285,176.244c1.797-31.992-0.358-53.496-0.451-54.396c-0.364-3.533-3.156-6.325-6.689-6.69  c-86.497-8.923-143.771-55.89-144.334-56.359c-2.78-2.323-6.828-2.323-9.612-0.004c-0.568,0.474-57.842,47.441-144.34,56.363  c-3.533,0.365-6.325,3.157-6.689,6.69c-0.143,1.39-3.445,34.561,1.706,79.853c4.773,41.957,18.074,102.462,54.331,152.437  c1.467,2.021,3.755,3.095,6.074,3.095c1.526,0,3.067-0.465,4.397-1.43c3.351-2.432,4.098-7.121,1.665-10.472  c-34.267-47.233-46.934-104.902-51.527-144.963c-3.766-32.849-2.871-59.582-2.177-71.005c74.235-9.23,125.832-43.734,141.362-55.312  c15.531,11.579,67.123,46.085,141.367,55.312c0.513,8.348,1.134,24.879-0.056,46.037c-0.232,4.135,2.931,7.675,7.065,7.906  C408.523,183.531,412.053,180.379,412.285,176.244z" fill="#000000" data-original="#000000" style="" class=""/>
<path xmlns="http://www.w3.org/2000/svg" d="M253.23,429.515c0.891,0.354,1.83,0.531,2.771,0.531s1.881-0.177,2.771-0.531c48.338-19.229,86.17-52.708,112.444-99.507  c19.453-34.649,32.324-75.985,38.256-122.862c0.521-4.108-2.389-7.859-6.497-8.379c-4.104-0.52-7.859,2.388-8.379,6.496  c-16.689,131.869-83.947,186.559-138.597,209.194c-26.409-10.927-49.568-26.611-68.869-46.646  c-2.871-2.981-7.619-3.072-10.601-0.198c-2.982,2.873-3.071,7.62-0.198,10.602C197.797,400.496,223.669,417.756,253.23,429.515z" fill="#000000" data-original="#000000" style="" class=""/>
<path xmlns="http://www.w3.org/2000/svg" d="M235.919,310.746c7.016,0,13.61-2.732,18.569-7.691l85.351-85.35c10.238-10.239,10.238-26.899-0.001-37.139  c-10.24-10.239-26.898-10.237-37.138,0.001l-66.781,66.781l-24.106-24.107c-10.24-10.239-26.898-10.238-37.138,0.001  c-10.238,10.24-10.238,26.899,0,37.138l42.677,42.676C222.31,308.016,228.905,310.746,235.919,310.746z M185.277,233.845  c2.196-2.196,5.081-3.294,7.967-3.294c2.884,0,5.769,1.099,7.965,3.294l29.407,29.408c1.407,1.407,3.313,2.196,5.302,2.196  c1.988,0,3.895-0.79,5.302-2.196l72.082-72.083c4.394-4.394,11.539-4.395,15.933-0.002c4.393,4.394,4.393,11.54,0,15.933  l-85.351,85.35c-2.127,2.127-4.956,3.299-7.965,3.299s-5.838-1.172-7.965-3.299l-42.675-42.675  C180.887,245.384,180.887,238.237,185.277,233.845z" fill="#000000" data-original="#000000" style="" class=""/>
<g xmlns="http://www.w3.org/2000/svg">
</g>
<g xmlns="http://www.w3.org/2000/svg">
</g>
<g xmlns="http://www.w3.org/2000/svg">
</g>
<g xmlns="http://www.w3.org/2000/svg">
</g>
<g xmlns="http://www.w3.org/2000/svg">
</g>
<g xmlns="http://www.w3.org/2000/svg">
</g>
<g xmlns="http://www.w3.org/2000/svg">
</g>
<g xmlns="http://www.w3.org/2000/svg">
</g>
<g xmlns="http://www.w3.org/2000/svg">
</g>
<g xmlns="http://www.w3.org/2000/svg">
</g>
<g xmlns="http://www.w3.org/2000/svg">
</g>
<g xmlns="http://www.w3.org/2000/svg">
</g>
<g xmlns="http://www.w3.org/2000/svg">
</g>
<g xmlns="http://www.w3.org/2000/svg">
</g>
<g xmlns="http://www.w3.org/2000/svg">
</g>
</g></svg>
