<svg height="512" viewBox="0 0 128 128" width="512" xmlns="http://www.w3.org/2000/svg"><g><path d="m1.75 33.833h124.5v77.167h-124.5z" fill="#efefef"/><path d="m102.513 73.188h-36.763v-9.188a1.75 1.75 0 0 0 -3.5 0v9.188h-36.763a1.75 1.75 0 0 0 -1.75 1.75v10.937a1.75 1.75 0 0 0 3.5 0v-9.187h35.013v9.187a1.75 1.75 0 0 0 3.5 0v-9.187h35.013v9.187a1.75 1.75 0 0 0 3.5 0v-10.937a1.75 1.75 0 0 0 -1.75-1.75z" fill="#d3d3d3"/><path d="m126.25 33.833h-124.5v-12.833a4 4 0 0 1 4-4h116.5a4 4 0 0 1 4 4z" fill="#e8594f"/><g fill="#f4ad47"><path d="m16.75 27.167h-4.167a1.75 1.75 0 1 1 0-3.5h4.167a1.75 1.75 0 0 1 0 3.5z"/><path d="m28.667 27.167h-4.167a1.75 1.75 0 0 1 0-3.5h4.167a1.75 1.75 0 0 1 0 3.5z"/><path d="m40.583 27.167h-4.166a1.75 1.75 0 0 1 0-3.5h4.166a1.75 1.75 0 0 1 0 3.5z"/></g><rect fill="#7075e0" height="20.167" rx="3" width="34.25" x="46.875" y="43.833"/><g fill="#61c7d2"><rect height="15.125" rx="3" width="27.474" x="11.75" y="85.875"/><rect height="15.125" rx="3" width="27.474" x="50.263" y="85.875"/><rect height="15.125" rx="3" width="27.474" x="88.776" y="85.875"/></g></g></svg>