<svg height="512pt" viewBox="0 0 512.00002 512" width="512pt" xmlns="http://www.w3.org/2000/svg"><path d="m180.160156 244.945312c-29.308594 17.355469-111.496094 25.148438-176.265625 88.769532-6.71875 6.597656-4.40625 17.878906 4.332031 21.386718 45.808594 18.402344 102.394532 88.492188 143.5625 115.601563 7.390626 4.867187 17 4.996094 24.335938.058594 38.585938-25.964844 60.15625-97.503907 120.433594-124.304688zm0 0" fill="#e26e7e"/><path d="m296.5625 346.460938-116.402344-101.515626c-13.148437 7.789063-36.949218 13.652344-65.039062 23.496094-12.464844 58.148438-3.941406 166.09375 67.195312 197.652344 34.871094-29.003906 57.265625-94.300781 114.246094-119.632812zm0 0" fill="#d9495d"/><path d="m238.765625 512c-7.898437 0-14.984375-5.523438-16.664063-13.558594-7.773437-37.207031 1.847657-99.585937 3.941407-109.515625 1.941406-9.207031 10.976562-15.097656 20.191406-13.15625 9.207031 1.941407 15.097656 10.980469 13.15625 20.191407-2.441406 11.578124-9.890625 66.96875-3.929687 95.507812 1.925781 9.214844-3.980469 18.242188-13.195313 20.167969-1.171875.246093-2.347656.363281-3.5.363281zm0 0" fill="#efd176"/><path d="m342.097656 512c-1.15625 0-2.328125-.117188-3.503906-.363281-9.210938-1.925781-15.117188-10.953125-13.195312-20.167969 5.960937-28.527344-1.484376-83.929688-3.925782-95.511719-1.941406-9.207031 3.949219-18.246093 13.160156-20.1875 9.214844-1.949219 18.246094 3.949219 20.1875 13.160157 2.09375 9.929687 11.710938 72.3125 3.941407 109.511718-1.679688 8.035156-8.765625 13.558594-16.664063 13.558594zm0 0" fill="#efd176"/><path d="m384.5 330.5625c-6.203125 0-12.1875-3.398438-15.195312-9.308594-4.273438-8.382812-.9375-18.644531 7.445312-22.917968 26.238281-13.367188 59.433594-48.199219 104.464844-109.613282 5.566406-7.589844 16.230468-9.230468 23.820312-3.664062 7.589844 5.5625 9.230469 16.226562 3.664063 23.816406-48.960938 66.777344-84.886719 103.734375-116.476563 119.828125-2.476562 1.261719-5.117187 1.859375-7.722656 1.859375zm0 0" fill="#efd176"/><path d="m158.640625 402.113281c-17.546875 0-33.15625-6.515625-44.433594-18.925781-14.96875-16.472656-19.472656-40.167969-11.753906-61.84375 8.917969-25.058594 32.140625-42.152344 63.710937-46.894531 9.3125-1.398438 17.988282 5.011719 19.386719 14.316406 1.398438 9.308594-5.011719 17.988281-14.320312 19.386719-19.011719 2.855468-32.035157 11.601562-36.671875 24.621094-3.4375 9.660156-1.527344 20.453124 4.871094 27.492187 6.632812 7.296875 17.320312 9.546875 30.101562 6.328125 9.125-2.292969 18.386719 3.242188 20.683594 12.371094 2.296875 9.125-3.242188 18.386718-12.367188 20.683594-6.574218 1.652343-13.015625 2.464843-19.207031 2.464843zm0 0" fill="#efd176"/><path d="m243.582031 68.65625c23.976563 23.976562 28.085938 61.304688 28.496094 80.460938.148437 6.960937-5.542969 12.652343-12.503906 12.503906-19.15625-.410156-56.484375-4.519532-80.460938-28.496094-23.972656-23.976562-28.082031-61.300781-28.492187-80.457031-.148438-6.960938 5.542968-12.652344 12.503906-12.503907 19.15625.410157 56.484375 4.519532 80.457031 28.492188zm0 0" fill="#8ee2cf"/><path d="m225.726562 122.769531c-1.917968 0-3.839843-.730469-5.304687-2.195312l-28.753906-28.757813c-2.929688-2.925781-2.929688-7.675781 0-10.605468 2.929687-2.929688 7.679687-2.929688 10.605469 0l28.757812 28.757812c2.925781 2.925781 2.925781 7.675781 0 10.605469-1.464844 1.464843-3.386719 2.195312-5.304688 2.195312zm0 0" fill="#6fce91"/><path d="m337.277344 68.65625c-23.972656 23.976562-28.082032 61.304688-28.492188 80.460938-.148437 6.960937 5.542969 12.652343 12.503906 12.503906 19.15625-.410156 56.484376-4.519532 80.457032-28.496094 23.976562-23.976562 28.085937-61.300781 28.496094-80.457031.148437-6.960938-5.542969-12.652344-12.503907-12.503907-19.15625.410157-56.484375 4.519532-80.460937 28.492188zm0 0" fill="#8ee2cf"/><path d="m355.136719 122.769531c-1.917969 0-3.839844-.730469-5.304688-2.195312-2.929687-2.929688-2.929687-7.679688 0-10.605469l28.753907-28.757812c2.929687-2.929688 7.679687-2.929688 10.605468 0 2.929688 2.929687 2.929688 7.679687.003906 10.605468l-28.753906 28.757813c-1.464844 1.464843-3.386718 2.195312-5.304687 2.195312zm0 0" fill="#6fce91"/><path d="m336.019531 80.8125c0 33.90625-23.492187 63.207031-36.746093 77.039062-4.816407 5.027344-12.867188 5.027344-17.683594 0-13.253906-13.832031-36.742188-43.132812-36.742188-77.039062s23.488282-63.207031 36.742188-77.042969c4.816406-5.027343 12.867187-5.027343 17.683594 0 13.253906 13.835938 36.746093 43.136719 36.746093 77.042969zm0 0" fill="#8ee2cf"/><path d="m290.433594 108.644531c-4.144532 0-7.5-3.359375-7.5-7.5v-40.664062c0-4.144531 3.355468-7.5 7.5-7.5 4.140625 0 7.5 3.355469 7.5 7.5v40.664062c0 4.140625-3.359375 7.5-7.5 7.5zm0 0" fill="#6fce91"/><path d="m290.433594 130.140625c70.335937 0 120.613281 55.394531 127.351562 139.28125 7.011719 87.261719-25.8125 152.351563-127.351562 152.351563-101.542969 0-134.367188-65.089844-127.359375-152.351563 6.742187-83.886719 57.019531-139.28125 127.359375-139.28125zm0 0" fill="#f7ef87"/><g fill="#efd176"><path d="m248.386719 137.453125c-47.761719 17.628906-80.007813 65.980469-85.3125 131.96875-6.988281 87.019531 25.640625 151.980469 126.519531 152.34375-122.445312-74.914063-89.609375-210.078125-41.207031-284.3125zm0 0"/><path d="m316.300781 237.476562c-1.921875 0-3.839843-.730468-5.304687-2.195312l-7.0625-7.0625-7.0625 7.0625c-2.929688 2.929688-7.679688 2.929688-10.605469 0-2.929687-2.929688-2.929687-7.679688 0-10.605469l12.367187-12.367187c1.402344-1.40625 3.3125-2.195313 5.300782-2.195313 1.988281 0 3.898437.789063 5.304687 2.195313l12.363281 12.367187c2.929688 2.929688 2.929688 7.675781 0 10.605469-1.464843 1.464844-3.382812 2.195312-5.300781 2.195312zm0 0"/><path d="m386.996094 237.476562c-1.921875 0-3.839844-.730468-5.304688-2.195312l-7.0625-7.0625-7.0625 7.0625c-2.925781 2.929688-7.675781 2.929688-10.605468 0-2.929688-2.929688-2.929688-7.679688 0-10.605469l12.367187-12.367187c1.40625-1.40625 3.3125-2.195313 5.300781-2.195313 1.988282 0 3.898438.789063 5.304688 2.195313l12.367187 12.367187c2.925781 2.929688 2.925781 7.675781-.003906 10.605469-1.460937 1.464844-3.382813 2.195312-5.300781 2.195312zm0 0"/><path d="m245.601562 237.476562c-1.917968 0-3.839843-.730468-5.304687-2.195312l-7.0625-7.0625-7.0625 7.0625c-2.929687 2.929688-7.675781 2.929688-10.605469 0-2.929687-2.929688-2.929687-7.679688 0-10.605469l12.367188-12.367187c1.40625-1.40625 3.3125-2.195313 5.304687-2.195313 1.988281 0 3.894531.789063 5.300781 2.195313l12.367188 12.367187c2.929688 2.929688 2.929688 7.675781 0 10.605469-1.464844 1.464844-3.386719 2.195312-5.304688 2.195312zm0 0"/><path d="m351.648438 382.410156c-1.921876 0-3.839844-.730468-5.304688-2.195312l-7.0625-7.0625-7.0625 7.0625c-2.929688 2.929687-7.679688 2.929687-10.609375 0-2.925781-2.929688-2.925781-7.679688.003906-10.609375l12.363281-12.363281c1.40625-1.40625 3.316407-2.199219 5.304688-2.199219s3.898438.792969 5.304688 2.199219l12.363281 12.363281c2.929687 2.929687 2.929687 7.679687 0 10.609375-1.464844 1.464844-3.382813 2.195312-5.300781 2.195312zm0 0"/><path d="m280.949219 382.410156c-1.917969 0-3.839844-.730468-5.304688-2.195312l-7.0625-7.0625-7.0625 7.0625c-2.925781 2.929687-7.675781 2.929687-10.605469 0-2.929687-2.929688-2.929687-7.679688 0-10.609375l12.367188-12.363281c1.40625-1.40625 3.3125-2.199219 5.300781-2.199219 1.992188 0 3.898438.792969 5.304688 2.199219l12.367187 12.363281c2.929688 2.929687 2.929688 7.679687-.003906 10.609375-1.460938 1.464844-3.382812 2.195312-5.300781 2.195312zm0 0"/></g><path d="m252.21875 303.445312c0-13.300781-13.542969-24.082031-30.242188-24.082031-16.703124 0-30.242187 10.78125-30.242187 24.082031 0 13.300782 13.539063 24.082032 30.242187 24.082032 16.699219 0 30.242188-10.78125 30.242188-24.082032zm0 0" fill="#eda1ab"/><path d="m416.132812 303.445312c0-13.300781-13.539062-24.082031-30.242187-24.082031s-30.242187 10.78125-30.242187 24.082031c0 13.300782 13.539062 24.082032 30.242187 24.082032s30.242187-10.78125 30.242187-24.082032zm0 0" fill="#eda1ab"/><path d="m239.601562 286.921875c-4.144531 0-7.5-3.359375-7.5-7.5v-10.679687c0-4.140626 3.355469-7.5 7.5-7.5 4.140626 0 7.5 3.359374 7.5 7.5v10.679687c0 4.140625-3.359374 7.5-7.5 7.5zm0 0" fill="#4e5660"/><path d="m368.265625 286.921875c-4.140625 0-7.5-3.359375-7.5-7.5v-10.679687c0-4.140626 3.359375-7.5 7.5-7.5 4.144531 0 7.5 3.359374 7.5 7.5v10.679687c0 4.140625-3.355469 7.5-7.5 7.5zm0 0" fill="#4e5660"/><path d="m303.933594 295.121094c-8.667969 0-16.910156-3.753906-22.613282-10.296875-2.722656-3.125-2.394531-7.859375.726563-10.582031 3.121094-2.722657 7.859375-2.398438 10.582031.726562 2.851563 3.273438 6.972656 5.152344 11.304688 5.152344 4.332031 0 8.453125-1.878906 11.308594-5.152344 2.722656-3.125 7.457031-3.449219 10.582031-.726562 3.121093 2.71875 3.449219 7.457031.726562 10.582031-5.707031 6.542969-13.949219 10.296875-22.617187 10.296875zm0 0" fill="#4e5660"/><path d="m328.832031 335.777344 18.96875 14.625c4.71875 3.636718 5.164063 10.59375.953125 14.804687l-33.1875 33.1875c-6.886718 6.886719-18.054687 6.886719-24.945312 0l-33.1875-33.1875c-4.210938-4.210937-3.765625-11.167969.953125-14.804687l18.96875-14.625c3.085937-2.378906 6.871093-3.667969 10.769531-3.667969h29.9375c3.898438 0 7.6875 1.289063 10.769531 3.667969zm0 0" fill="#8eafe2"/><path d="m303.933594 361.5625c-18.398438 0-24.792969 14.84375-40.472656 9.671875l27.160156 27.160156c6.890625 6.886719 18.058594 6.886719 24.945312 0l26.527344-26.527343c-14.042969 3.074218-20.695312-10.304688-38.160156-10.304688zm0 0" fill="#8ee2cf"/></svg>