<svg id="Flat" height="512" viewBox="0 0 512 512" width="512" xmlns="http://www.w3.org/2000/svg"><g><path d="m442 488h-368a10 10 0 0 1 -10-10v-182h376l12 16v166a10 10 0 0 1 -10 10z" fill="#25b1fa"/><path d="m248 296h16v192h-16z" fill="#2590fa"/><g><path d="m436.785 231.138-41.57-24 8-13.856 37.857-33.569 13.856 8-10.143 49.569z" fill="#fdc069"/><g fill="#f15a57"><path d="m364 211.636h48v112h-48z" transform="matrix(.866 .5 -.5 .866 185.8 -158.144)"/><path d="m446 138.392h24v16h-24z" transform="matrix(.5 -.866 .866 .5 102.221 469.836)"/></g></g><g><path d="m352 152a96 96 0 1 0 -141.171 84.73l13.171 59.27h64l13.171-59.27a95.985 95.985 0 0 0 50.829-84.73z" fill="#fdc069"/><path d="m224 296h64l10.667-48h-85.334z" fill="#f15a57"/><path d="m280 128a8 8 0 0 0 -5.657 2.343l-18.343 18.344-18.343-18.344a8 8 0 0 0 -5.657-2.343h-32v16h28.686l19.314 19.314v84.686h16v-84.686l19.314-19.314h28.686v-16z" fill="#f6fcff"/></g><path d="m309 360h160.958a10 10 0 0 0 8.48-15.3l-30.438-48.7h-192l45 60a10 10 0 0 0 8 4z" fill="#fdc069"/><g><path d="m127.426 219.464-41.57 24-37.856-33.569 3.713-57.569 13.856-8 51.713 25.569z" fill="#fdc069"/><path d="m104.641 225.569h48v88h-48z" fill="#f15a57" transform="matrix(.866 -.5 .5 .866 -117.55 100.436)"/><path d="m62.641 145.11h16v48h-16z" fill="#f6fcff" transform="matrix(.866 -.5 .5 .866 -75.091 57.977)"/></g><path d="m203 360h-160.958a10 10 0 0 1 -8.48-15.3l30.438-48.7h192l-45 60a10 10 0 0 1 -8 4z" fill="#fdc069"/><g><path d="m87.215 69.444h48v48h-48z" fill="#25b1fa" transform="matrix(-.866 -.5 .5 -.866 160.809 229.976)"/><path d="m77.867 34.556h48v48h-48z" fill="#fdc069" transform="matrix(-.866 -.5 .5 -.866 160.809 160.202)"/></g><path d="m461.44 61.93a8 8 0 0 0 -3.727-4.858l-55.426-32a8 8 0 0 0 -10.928 2.928l-12 20.784 13.856 8 8-13.856 13.857 8-28 48.5-6.928-4-8 13.855 27.712 16 8-13.855-6.928-4 28-48.5 13.857 8-8 13.856 13.856 8 12-20.784a8 8 0 0 0 .799-6.07z" fill="#25b1fa"/></g></svg>