<svg id="Capa_1" enable-background="new 0 0 497 497" height="512" viewBox="0 0 497 497" width="512" xmlns="http://www.w3.org/2000/svg"><g><path d="m321.352 33.37v430.26c0 18.43-14.94 33.37-33.37 33.37h-233.8c-18.43 0-33.37-14.94-33.37-33.37v-430.26c0-18.43 14.94-33.37 33.37-33.37h35.4l83.36 8.817 79.64-8.817h35.4c18.43 0 33.37 14.94 33.37 33.37z" fill="#f6c2e0"/><path d="m287.982 0h-26.304c18.43 0 33.37 14.94 33.37 33.37v430.26c0 18.43-14.94 33.37-33.37 33.37h26.304c18.43 0 33.37-14.94 33.37-33.37v-430.26c0-18.43-14.94-33.37-33.37-33.37z" fill="#f6a6d2"/><path d="m230.855 253.939h-119.547c-10.314 0-18.676-8.361-18.676-18.676v-119.547c0-10.314 8.361-18.676 18.676-18.676h119.547c10.314 0 18.676 8.361 18.676 18.676v119.547c0 10.314-8.361 18.676-18.676 18.676z" fill="#00f2a6"/><path d="m230.855 97.04h-22.678c10.314 0 18.676 8.362 18.676 18.676v119.547c0 10.314-8.361 18.676-18.676 18.676h22.678c10.314 0 18.676-8.361 18.676-18.676v-119.547c0-10.315-8.361-18.676-18.676-18.676z" fill="#05e39c"/><path d="m252.582 0-4.55 23.76c-2.5 13.05-13.91 22.48-27.19 22.48h-99.52c-13.28 0-24.69-9.43-27.19-22.48l-4.55-23.76z" fill="#017297"/><path d="m228.903 0-4.55 23.76c-2.5 13.05-13.91 22.48-27.19 22.48h23.678c13.28 0 24.69-9.43 27.19-22.48l4.551-23.76z" fill="#025f80"/><g><path d="m389.373 335.009h-72.193c-15.752 0-28.521-12.769-28.521-28.521v-72.193c0-15.752 12.769-28.521 28.521-28.521h72.193c15.752 0 28.521 12.769 28.521 28.521v72.193c0 15.752-12.769 28.521-28.521 28.521z" fill="#edf5fa"/></g><path d="m389.373 205.774h-20.404c15.752 0 28.521 12.77 28.521 28.521v72.193c0 15.752-12.769 28.521-28.521 28.521h20.404c15.752 0 28.521-12.769 28.521-28.521v-72.193c0-15.752-12.769-28.521-28.521-28.521z" fill="#d0e7f2"/><g><g><circle cx="135.26" cy="158.351" fill="#edf5fa" r="7.518"/></g><g><path d="m210.711 165.852h-40.451c-4.143 0-7.5-3.357-7.5-7.5s3.357-7.5 7.5-7.5h40.451c4.143 0 7.5 3.357 7.5 7.5s-3.358 7.5-7.5 7.5z" fill="#edf5fa"/></g></g><g><path d="m210.711 194.096h-75.538c-4.143 0-7.5-3.357-7.5-7.5s3.357-7.5 7.5-7.5h75.538c4.143 0 7.5 3.357 7.5 7.5s-3.358 7.5-7.5 7.5z" fill="#edf5fa"/></g><g><g><path d="m186.03 31.8h-29.897c-4.143 0-7.5-3.357-7.5-7.5s3.357-7.5 7.5-7.5h29.897c4.143 0 7.5 3.357 7.5 7.5s-3.357 7.5-7.5 7.5z" fill="#025f80"/></g></g><g><circle cx="281.491" cy="31.684" fill="#d0e7f2" r="7.384"/></g><g><g><path d="m351.373 342.51h-29c-4.143 0-7.5-3.357-7.5-7.5s3.357-7.5 7.5-7.5h29c4.143 0 7.5 3.357 7.5 7.5s-3.357 7.5-7.5 7.5zm-58.855-14.196c-2.583 0-5.096-1.335-6.489-3.729-3.188-5.477-4.871-11.735-4.87-18.099v-.986c0-4.143 3.357-7.5 7.5-7.5s7.5 3.357 7.5 7.5v.987c-.001 3.717.979 7.365 2.835 10.553 2.083 3.58.87 8.171-2.71 10.255-1.186.691-2.484 1.019-3.766 1.019zm125.37-14.552c-.067 0-.136-.001-.203-.003-4.141-.11-7.408-3.556-7.298-7.696.005-.19.008-.382.008-.574v-14.228c0-4.143 3.357-7.5 7.5-7.5s7.5 3.357 7.5 7.5v14.228c0 .325-.005.65-.014.973-.109 4.072-3.444 7.3-7.493 7.3zm-129.229-35.761c-4.143 0-7.5-3.357-7.5-7.5v-16c0-4.143 3.357-7.5 7.5-7.5s7.5 3.357 7.5 7.5v16c0 4.143-3.357 7.5-7.5 7.5zm129.235-14.24c-4.143 0-7.5-3.357-7.5-7.5v-16c0-4.143 3.357-7.5 7.5-7.5s7.5 3.357 7.5 7.5v16c0 4.142-3.357 7.5-7.5 7.5zm-125.498-36.102c-1.263 0-2.541-.318-3.716-.99-3.596-2.056-4.844-6.638-2.788-10.233 3.367-5.889 8.305-10.695 14.279-13.899 3.653-1.958 8.197-.584 10.154 3.064 1.958 3.65.586 8.197-3.064 10.154-3.492 1.873-6.379 4.683-8.348 8.126-1.384 2.422-3.914 3.778-6.517 3.778zm111.956-10.134c-1.347 0-2.71-.362-3.938-1.123-3.309-2.046-7.126-3.128-11.041-3.128h-.217c-4.143 0-7.5-3.357-7.5-7.5s3.357-7.5 7.5-7.5h.217c6.704 0 13.251 1.857 18.932 5.372 3.522 2.179 4.612 6.801 2.433 10.323-1.419 2.295-3.874 3.556-6.386 3.556zm-50.196-4.251h-16c-4.143 0-7.5-3.357-7.5-7.5s3.357-7.5 7.5-7.5h16c4.143 0 7.5 3.357 7.5 7.5s-3.357 7.5-7.5 7.5z" fill="#b7d9eb"/></g></g><g><g><g><path d="m238.559 453.958c-4.143 0-7.5-3.357-7.5-7.5v-120.007c0-4.143 3.357-7.5 7.5-7.5s7.5 3.357 7.5 7.5v120.007c0 4.143-3.357 7.5-7.5 7.5z" fill="#edf5fa"/></g></g><g><g><path d="m144.62 453.958c-.027 0-.053 0-.08 0-9.574-.013-18.371-2.538-26.147-7.506-14.998-9.582-22.288-21.823-22.288-37.423v-82.578c0-4.143 3.357-7.5 7.5-7.5s7.5 3.357 7.5 7.5v82.578c0 10.49 4.595 17.902 15.364 24.782 5.331 3.406 11.418 5.138 18.092 5.146h.058c5.951 0 11.462-1.256 16.384-3.734 12.442-6.267 18.49-14.863 18.49-26.281v-82.491c0-4.143 3.357-7.5 7.5-7.5s7.5 3.357 7.5 7.5v82.491c0 17.146-9.248 30.867-26.744 39.678-7.034 3.542-14.815 5.338-23.129 5.338z" fill="#edf5fa"/></g></g></g><g><path d="m471.501 424.082c-3.73 3.6-8.32 4.89-12.63 4.5-2.674-.638-4.422.118-9.99-4.5l-5.23-5.23-57.97-57.97c-1.18-1.18-3.19-.34-3.19 1.32v23.12c0 9.09-7.59 16.41-16.77 15.98-8.61-.41-15.23-7.82-15.23-16.43v-65.81c-.19-9.48 8.23-16.03 16-16h66.25c9.1 0 16.42 7.59 15.98 16.78-.4 8.6-7.81 15.22-16.43 15.22h-22.66c-1.67 0-2.5 2.02-1.32 3.19l63.19 63.2c6.25 6.25 6.25 16.38 0 22.63z" fill="#017297"/><g fill="#025f80"><path d="m427.751 319.842c-.4 8.6-7.82 15.22-16.43 15.22h20.966c8.609 0 16.021-6.61 16.435-15.21.443-9.188-6.878-16.79-15.981-16.79h-20.97c9.09 0 16.41 7.59 15.98 16.78z"/><path d="m471.501 424.082c-3.73 3.6-8.32 4.89-12.63 4.5-2.674-.638-4.422.118-9.99-4.5l-4.35-4.35c2.35 2.33 6.13 2.57 8.66.43 3.213-4.724 2.44-13.425-2.66-18.71l-62.16-62.16c-1.56-1.56-.46-4.23 1.75-4.23l20.54-.27c.33 0 .66.09.95.27h-1.98c-1.67 0-2.5 2.02-1.32 3.19l63.19 63.2c6.25 6.25 6.25 16.38 0 22.63z"/></g></g></g></svg>