<?xml version="1.0" encoding="utf-8"?>
<!-- Generator: Adobe Illustrator 24.0.1, SVG Export Plug-In . SVG Version: 6.00 Build 0)  -->
<svg version="1.1" id="Calque_1" xmlns="http://www.w3.org/2000/svg" xmlns:xlink="http://www.w3.org/1999/xlink" x="0px" y="0px"
	 viewBox="0 0 500 300" style="enable-background:new 0 0 500 300;" xml:space="preserve">
<style type="text/css">
	.st0{fill:url(#SVGID_1_);}
	.st1{fill:url(#SVGID_2_);}
	.st2{fill:url(#SVGID_3_);}
	.st3{fill:url(#SVGID_4_);}
	.st4{fill:url(#SVGID_5_);}
	.st5{fill:url(#SVGID_6_);}
</style>
<g>
	<linearGradient id="SVGID_1_" gradientUnits="userSpaceOnUse" x1="-3.906250e-03" y1="128.3271" x2="178.0488" y2="128.3271">
		<stop  offset="0" style="stop-color:#009FE3"/>
		<stop  offset="1" style="stop-color:#009FE3;stop-opacity:0.4"/>
	</linearGradient>
	<path class="st0" d="M156.58,153.17l-11.93,53.94h-8.04c-3.1-9.58-8.06-18.87-14.88-27.88c-6.82-9.01-14.55-16.44-23.17-22.28
		c-5.69,8.6-12.05,16.31-19.09,23.13s-14.5,12.66-22.41,17.53s-16.14,8.64-24.67,11.32s-16.91,4.02-25.11,4.02
		c-2.26,0-4.69-0.2-7.28-0.61l4.02-9.25c4.44,0.49,7.79,0.73,10.05,0.73c22.94,0,43.36-8.68,61.28-26.06
		c3.68-3.57,7.43-7.69,11.24-12.36c3.81-4.67,7.76-10.12,11.87-16.38c9.12-13.88,16.91-26.87,23.35-38.96l11.8-22.04
		c9.29-17.29,16.45-29,21.47-35.13c5.02-6.13,10-9.19,14.94-9.19c1.59,0,2.99,0.33,4.21,0.97c1.21,0.65,2.15,1.6,2.83,2.86
		c0.67,1.26,1,2.66,1,4.2c0,1.14-0.21,2.8-0.63,4.99c-0.42,2.92-0.67,4.5-0.75,4.75l-19.21,87.54h8.92l-0.88,4.14H156.58z
		 M144.77,153.17h-43.82l0.5,0.37c7.45,5.52,13.85,11.2,19.21,17.04c5.36,5.84,10.59,12.83,15.7,20.94L144.77,153.17z
		 M104.34,149.03h41.31l17.83-82.79c0.58-2.68,0.88-4.06,0.88-4.14c0.5-1.62,0.75-3.08,0.75-4.38c0-2.03-0.92-3.04-2.76-3.04
		c-2.26,0-4.98,2.31-8.16,6.94c-3.18,4.63-8.71,14.12-16.57,28.49c-1.17,2.19-3.56,6.62-7.16,13.27c-3.01,5.28-4.65,8.2-4.9,8.77
		l-12.05,21.31C108.49,142.29,105.43,147.48,104.34,149.03z"/>
	<linearGradient id="SVGID_2_" gradientUnits="userSpaceOnUse" x1="174.6587" y1="165.2795" x2="221.6201" y2="165.2795">
		<stop  offset="0" style="stop-color:#009FE3"/>
		<stop  offset="1" style="stop-color:#009FE3;stop-opacity:0.4"/>
	</linearGradient>
	<path class="st1" d="M174.66,172.52c7.2-8.44,12.01-16.31,14.44-23.62c-6.78-3.65-10.17-8.89-10.17-15.71
		c0-3.25,0.79-5.88,2.39-7.91c1.59-2.03,3.6-3.04,6.03-3.04c2.51,0,4.56,1.12,6.15,3.35c1.59,2.23,2.39,5.13,2.39,8.71
		c0,2.52-0.46,5.32-1.38,8.4c2.26,0.57,4.31,0.85,6.15,0.85c5.19,0,9.46-1.46,12.81-4.38h6.03l-0.88,1.7
		c-6.03,10.71-10.99,21.25-14.88,31.6c-3.89,10.35-5.84,18.08-5.84,23.19c0,1.87,0.5,3.43,1.51,4.69c1,1.26,2.22,1.89,3.64,1.89
		c3.43,0,8.96-3.53,16.57-10.59l2.01,2.19c-2.34,2.52-5.99,5.64-10.92,9.38c-4.44,3.41-8.58,5.11-12.43,5.11
		c-3.27,0-5.84-1.06-7.72-3.17c-1.88-2.11-2.83-4.99-2.83-8.64c0-6.09,2.43-13.8,7.28-23.13c1.76-3.49,4.02-7.47,6.78-11.93
		c2.76-4.46,6.24-9.78,10.42-15.95l1.26-1.7c-2.76,2.44-5.42,4.16-7.97,5.17c-2.55,1.02-5.46,1.52-8.73,1.52
		c-1.51,0-3.1-0.2-4.77-0.61c-2.68,7.96-7.7,16.15-15.07,24.59L174.66,172.52z M191.86,141.6c0.33-2.03,0.5-3.73,0.5-5.11
		c0-2.84-0.48-5.07-1.44-6.7c-0.96-1.62-2.2-2.44-3.7-2.44c-0.84,0-1.57,0.39-2.2,1.16c-0.63,0.77-0.94,1.73-0.94,2.86
		C184.08,135.19,186.67,138.6,191.86,141.6z"/>
	<linearGradient id="SVGID_3_" gradientUnits="userSpaceOnUse" x1="233.6743" y1="148.2944" x2="266.3223" y2="148.2944">
		<stop  offset="0" style="stop-color:#009FE3"/>
		<stop  offset="1" style="stop-color:#009FE3;stop-opacity:0.4"/>
	</linearGradient>
	<path class="st2" d="M255.4,135.88l-11.05,40.06c-1.84,6.58-2.76,11.85-2.76,15.83c0,2.6,0.46,4.71,1.38,6.33
		c0.92,1.62,2.13,2.44,3.64,2.44c2.59,0,6.74-3,12.43-9.01l2.01,1.7l-1.25,1.34c-4.77,5.44-8.29,9.11-10.55,11.02
		s-4.35,2.86-6.28,2.86c-2.6,0-4.79-1.28-6.59-3.83c-1.8-2.56-2.7-5.74-2.7-9.56c0-2.43,0.5-6.29,1.51-11.57l7.91-42.61
		L255.4,135.88z M259.04,88.15c2.18,0,3.93,0.65,5.27,1.95c1.34,1.3,2.01,3,2.01,5.11c0,2.03-0.71,3.73-2.13,5.11
		c-1.43,1.38-3.14,2.07-5.15,2.07c-1.93,0-3.64-0.73-5.15-2.19c-1.51-1.46-2.26-3.12-2.26-4.99c0-1.95,0.71-3.61,2.13-4.99
		C255.19,88.84,256.95,88.15,259.04,88.15z"/>
	<linearGradient id="SVGID_4_" gradientUnits="userSpaceOnUse" x1="267.3262" y1="171.854" x2="343.9219" y2="171.854">
		<stop  offset="0" style="stop-color:#009FE3"/>
		<stop  offset="1" style="stop-color:#009FE3;stop-opacity:0.4"/>
	</linearGradient>
	<path class="st3" d="M338.15,135.15l-11.8,44.56c-1.26,4.87-1.88,8.69-1.88,11.45c0,2.43,0.54,4.55,1.63,6.33
		c1.09,1.79,2.43,2.68,4.02,2.68c2.43,0,6.45-2.88,12.05-8.64l1.76,1.7l-1.38,1.58c-4.44,4.95-7.85,8.42-10.23,10.41
		c-2.39,1.99-4.46,2.98-6.21,2.98c-2.68,0-5-1.36-6.97-4.08c-1.97-2.72-2.95-5.86-2.95-9.44c0-2.6,1-8.48,3.01-17.65l1-4.63
		c-3.1,6.98-7.24,13.68-12.43,20.09c-8.71,10.71-17.04,16.07-24.99,16.07c-4.77,0-8.54-1.66-11.3-4.99
		c-2.76-3.33-4.14-7.79-4.14-13.39c0-7.63,2.24-15.62,6.72-23.99c4.48-8.36,10.05-15.24,16.7-20.64c6.66-5.4,13.12-8.1,19.4-8.1
		c6.61,0,11.55,2.36,14.82,7.06l1.38-4.63L338.15,135.15z M323.71,150.73c-1-3.08-2.7-5.5-5.09-7.24c-2.39-1.74-5.13-2.62-8.22-2.62
		c-3.68,0-7.58,1.64-11.68,4.93c-4.1,3.29-7.87,7.85-11.3,13.7c-2.68,4.63-4.92,9.74-6.72,15.34c-1.8,5.6-2.7,10.23-2.7,13.88
		c0,4.14,0.82,7.39,2.45,9.74c1.63,2.36,3.96,3.53,6.97,3.53c3.85,0,7.87-1.75,12.05-5.24c4.18-3.49,8.33-8.48,12.43-14.98
		c2.51-3.73,4.48-7.47,5.9-11.2c1.42-3.73,3.01-8.93,4.77-15.58L323.71,150.73z"/>
	<linearGradient id="SVGID_5_" gradientUnits="userSpaceOnUse" x1="352.209" y1="172.1582" x2="427.4229" y2="172.1582">
		<stop  offset="0" style="stop-color:#009FE3"/>
		<stop  offset="1" style="stop-color:#009FE3;stop-opacity:0.4"/>
	</linearGradient>
	<path class="st4" d="M352.21,208.32l13.31-67.45l11.93-4.99l-10.8,44.68c6.95-14.2,13.85-25,20.72-32.39
		c6.86-7.38,13.44-11.08,19.71-11.08c3.1,0,5.61,1,7.53,2.98c1.92,1.99,2.89,4.65,2.89,7.98c0,1.87-0.46,4.5-1.38,7.91l-1.26,5.11
		l-3.77,14.85l-1.26,4.75c-1.26,4.87-1.88,8.6-1.88,11.2c0,2.6,0.46,4.69,1.38,6.27c0.92,1.58,2.13,2.38,3.64,2.38
		c2.59,0,6.74-3,12.43-9.01l2.01,1.7l-1.25,1.34c-4.77,5.44-8.29,9.11-10.55,11.02c-2.26,1.91-4.35,2.86-6.28,2.86
		c-2.6,0-4.79-1.28-6.59-3.83c-1.8-2.56-2.7-5.74-2.7-9.56c0-2.6,0.5-6.45,1.51-11.57l4.9-25.81c0.67-4.06,1-6.9,1-8.52
		c0-1.7-0.46-3-1.38-3.9c-0.92-0.89-2.18-1.34-3.77-1.34c-5.78,0-12.89,6.01-21.35,18.02c-4.1,5.76-7.49,11.47-10.17,17.11
		c-2.68,5.64-5.69,13.45-9.04,23.44l-1.13,3.29L352.21,208.32z"/>
	<linearGradient id="SVGID_6_" gradientUnits="userSpaceOnUse" x1="434.3281" y1="172.8279" x2="487.9453" y2="172.8279">
		<stop  offset="0" style="stop-color:#009FE3"/>
		<stop  offset="1" style="stop-color:#009FE3;stop-opacity:0.4"/>
	</linearGradient>
	<path class="st5" d="M485.68,188.23l2.26,1.83c-5.19,6.66-10.25,11.47-15.19,14.43c-4.94,2.96-10.26,4.44-15.95,4.44
		c-6.78,0-12.22-2.19-16.32-6.57c-4.1-4.38-6.15-10.19-6.15-17.41c0-7.3,1.99-14.71,5.96-22.22c3.97-7.51,8.96-13.72,14.94-18.63
		c5.98-4.91,11.91-7.37,17.77-7.37c3.43,0,6.26,0.97,8.48,2.92c2.22,1.95,3.33,4.46,3.33,7.55c0,6.25-3.52,12.5-10.55,18.75
		c-7.03,6.25-16.62,11.57-28.75,15.95c-0.08,0.65-0.13,1.38-0.13,2.19c0,5.6,1.59,10.17,4.77,13.7c3.18,3.53,7.28,5.3,12.31,5.3
		c3.93,0,7.74-1.2,11.43-3.59C477.56,197.1,481.5,193.34,485.68,188.23z M445.5,178.98c9.04-3.9,15.99-8.24,20.84-13.03
		c3.26-3.25,5.9-6.74,7.91-10.47c2.01-3.73,3.01-7.1,3.01-10.11c0-3.81-1.8-5.72-5.4-5.72c-5.44,0-10.95,4.16-16.51,12.48
		C449.79,160.45,446.51,169.4,445.5,178.98z"/>
</g>
</svg>
